<svg width="186" height="186" viewBox="0 0 186 186" fill="none" xmlns="http://www.w3.org/2000/svg">
    <path d="M170.173 53.1921H141.617C141.508 42.6735 132.411 34.1484 121.242 34.1484H64.7567C53.5891 34.1484 44.4907 42.6735 44.3821 53.1921H15.8267C7.09997 53.1921 0 59.8945 0 68.1326V152.896C0 161.134 7.09997 167.836 15.8267 167.836H170.174C178.9 167.836 186 161.134 186 152.895V68.1326C186 59.8945 178.9 53.1921 170.173 53.1921ZM115.191 68.4275H70.809C65.3587 68.4275 60.9241 64.2416 60.9241 59.0961C60.9241 54.2508 64.9314 50.1657 70.0464 49.796L113.144 49.593L115.953 49.796C121.069 50.1657 125.076 54.2508 125.076 59.0961C125.076 64.2416 120.641 68.4275 115.191 68.4275Z" fill="#E1D1F7"/>
    <path d="M170.273 53.4023H158.027C166.699 53.4023 173.755 60.0924 173.755 68.3153V152.923C173.755 161.146 166.699 167.836 158.027 167.836H170.273C178.945 167.836 186 161.146 186 152.923V68.3153C186 60.0924 178.945 53.4023 170.273 53.4023Z" fill="#CDB3F2"/>
    <path d="M72.6246 56.0794V18.1212C72.6246 13.6837 76.2218 10.0865 80.6593 10.0865H105.459C109.831 10.0865 113.375 13.6307 113.375 18.002V56.0786C113.375 57.64 112.109 58.9057 110.548 58.9057H75.4521C73.8903 58.9064 72.6246 57.6407 72.6246 56.0794Z" fill="#7229D9"/>
    <path d="M105.459 10.0865H93.7589C98.1306 10.0865 101.674 13.6307 101.674 18.002V56.0786C101.674 57.64 100.409 58.9061 98.847 58.9061H110.548C112.109 58.9061 113.375 57.6404 113.375 56.0786V18.0024C113.375 13.6307 109.831 10.0865 105.459 10.0865Z" fill="#521C9E"/>
    <path d="M93.695 19.651C89.3876 19.2245 85.7969 22.8152 86.2237 27.1226C86.5394 30.31 89.118 32.8882 92.3054 33.2043C96.6129 33.6308 100.204 30.0401 99.7767 25.7327C99.461 22.5445 96.8821 19.9663 93.695 19.651Z" fill="white"/>
    <path d="M49.9538 115.321C42.1222 116.151 35.5529 109.581 36.3834 101.75C36.9886 96.0432 41.5761 91.4561 47.2829 90.8516C55.1145 90.0222 61.6838 96.5918 60.8533 104.423C60.2481 110.13 55.6602 114.717 49.9538 115.321Z" fill="#7229D9"/>
    <path d="M48.6183 143.635C41.4715 143.635 34.6334 140.961 29.3633 136.107L28.1859 135.023L28.337 133.428C29.3335 122.916 38.0526 114.989 48.6179 114.989C59.1832 114.989 67.9024 122.916 68.8992 133.428L69.0503 135.022L67.8729 136.107C62.6028 140.961 55.7648 143.635 48.6183 143.635Z" fill="#7229D9"/>
    <path d="M82.2214 96.8732H130.511C132.168 96.8732 133.613 95.5963 133.663 93.9401C133.714 92.2265 132.34 90.8213 130.638 90.8213H82.3481C80.6912 90.8213 79.2461 92.0983 79.1967 93.7545C79.1458 95.4684 80.5194 96.8732 82.2214 96.8732Z" fill="#817C88"/>
    <path d="M154.846 90.8203H146.903C145.246 90.8203 143.802 92.0972 143.752 93.7534C143.701 95.467 145.074 96.8722 146.776 96.8722H154.719C156.376 96.8722 157.821 95.5953 157.871 93.9391C157.922 92.2251 156.548 90.8203 154.846 90.8203Z" fill="#817C88"/>
    <path d="M82.2214 121.081H106.303C107.96 121.081 109.405 119.804 109.454 118.147C109.506 116.434 108.132 115.029 106.43 115.029H82.3481C80.6912 115.029 79.2461 116.306 79.1967 117.962C79.1458 119.676 80.5194 121.081 82.2214 121.081Z" fill="#817C88"/>
    <path d="M154.846 115.029H122.695C121.038 115.029 119.593 116.306 119.543 117.962C119.492 119.675 120.866 121.081 122.568 121.081H154.719C156.376 121.081 157.821 119.804 157.871 118.147C157.922 116.433 156.548 115.029 154.846 115.029Z" fill="#817C88"/>
    <path d="M154.846 139.237H82.3482C80.6912 139.237 79.2461 140.514 79.1967 142.17C79.1455 143.884 80.5194 145.289 82.2214 145.289H154.719C156.376 145.289 157.821 144.012 157.871 142.356C157.922 140.642 156.548 139.237 154.846 139.237Z" fill="#817C88"/>
</svg>
