<?xml version="1.0" encoding="utf-8"?>
<!-- Generator: Adobe Illustrator 25.2.3, SVG Export Plug-In . SVG Version: 6.00 Build 0)  -->
<svg version="1.1" xmlns="http://www.w3.org/2000/svg" xmlns:xlink="http://www.w3.org/1999/xlink" x="0px" y="0px"
     viewBox="0 0 600 600" style="enable-background:new 0 0 600 600;" xml:space="preserve">
<style type="text/css">
	.st0{fill:#404B7C;}
	.st1{fill:#F68D88;}
	.st2{fill:none;stroke:#ECBDBB;stroke-linecap:round;stroke-linejoin:round;stroke-miterlimit:10;}
	.st3{fill:#9AB3DA;}
	.st4{fill:#6B81BE;}
	.st5{fill:none;stroke:#DEEBFF;stroke-linecap:round;stroke-linejoin:round;stroke-miterlimit:10;}
	.st6{fill:none;stroke:#6B81BE;stroke-linecap:round;stroke-linejoin:round;stroke-miterlimit:10;}
	.st7{fill:#E9F3FF;}
	.st8{fill:#ECBDBB;}
	.st9{fill:#FFFFFF;}
	.st10{fill:none;stroke:#404B7C;stroke-linecap:round;stroke-linejoin:round;stroke-miterlimit:10;}
	.st11{fill:#DEEBFF;}
	.st12{fill:none;stroke:#9AB3DA;stroke-linecap:round;stroke-linejoin:round;stroke-miterlimit:10;}
</style>
    <g id="Layer_19">
	<path class="st0" d="M268.7438049,142.9493103c0,0-0.0054626-0.2428589-0.0540771-0.682373
		c-0.3432617-3.1042786-2.8375549-16.0191422-20.7448883-22.4694595
		c-20.4427185-7.3635712-36.9789581,9.9244919-38.2581177,25.3894424
		c-1.0530548,12.7314301-12.1094666,11.7026367-26.1833191,10.9372711
		c-14.0738373-0.7653656-31.1364594,10.6854401-27.0374298,30.433609
		c4.0990143,19.7481689,58.9352722,50.4064178,70.8420563,35.0920868s7.0271301-34.6598206,15.1123047-47.7259674
		L268.7438049,142.9493103z"/>
</g>
    <g id="Layer_18">
	<g>
		<g>
			<path class="st1" d="M222.1881256,241.2835388c7.952301,24.2020569,23.3170929,66.7813721,38.5951385,68.3291931
				c11.2276306,1.1417542,40.6147461-21.099884,55.4204407-32.9855957c5.3655396-4.2990417,8.8179321-7.2504883,8.8179321-7.2504883
				c-2.1581726-8.6389465-12.1569824-17.6574554-12.1569824-17.6574554l-10.7740479,3.1680603l-30.0975647,8.8647919
				c-4.8674927-25.1142426-18.7105103-67.5325165-26.9336243-75.5440674
				C245.0594177,188.2079773,214.2233276,217.0797577,222.1881256,241.2835388z"/>
            <path class="st2" d="M271.5167236,266.3843689c0,0-6.899292,19.7172852-9.3943481,27.5541382"/>
            <path class="st3" d="M302.0906067,254.8872528l14.1130981,21.7398834
				c5.3655396-4.2990417,8.8179321-7.2504883,8.8179321-7.2504883
				c-2.1581726-8.6389465-12.1569824-17.6574554-12.1569824-17.6574554L302.0906067,254.8872528z"/>
		</g>
	</g>
</g>
    <g id="Layer_17">
	<g>
		<g>
			<path class="st3" d="M83.0615082,379.2020264L58.8063126,523.4337769
				c-0.5436516,3.2327881,1.9483604,6.178833,5.2265167,6.178833h0.0000153c2.3543777,0,4.4265213-1.5531616,5.0870514-3.8129883
				l42.8493652-146.5975952H83.0615082z"/>
            <path class="st0" d="M134.9862518,379.2020264l-24.2552032,144.2317505
				c-0.5436478,3.2327881,1.9483643,6.178833,5.2265167,6.178833h0.0000153c2.3543854,0,4.4265213-1.5531616,5.087059-3.8129883
				l42.8493576-146.5975952H134.9862518z"/>
		</g>
        <g>
			<path class="st0" d="M253.8973083,379.2020264l24.255188,144.2317505c0.5436707,3.2327881-1.9483643,6.178833-5.2265015,6.178833
				h-0.0000305c-2.3543701,0-4.4265137-1.5531616-5.0870361-3.8129883L224.989563,379.2020264H253.8973083z"/>
            <path class="st3" d="M201.9725647,379.2020264l24.2552032,144.2317505
				c0.5436554,3.2327881-1.9483643,6.178833-5.2265167,6.178833h-0.0000153c-2.3543854,0-4.4265289-1.5531616-5.0870514-3.8129883
				l-42.8493652-146.5975952H201.9725647z"/>
		</g>
        <g>
			<path class="st0" d="M220.6744537,370.1683655H69.8121262v-180.953949h97.4234085
				c7.3948975,0,13.3896332,5.9947357,13.3896332,13.3896332v131.5230865c0,14.7168274,9.810318,27.6288757,23.9887238,31.5732422
				L220.6744537,370.1683655z"/>
            <path class="st4" d="M84.2017517,203.47966c-0.3152618-15.6237793-21.9801979-19.8651581-27.8411865-5.3789368
				c-11.2616539,27.8347015-6.4225235,78.1927338-6.4225235,115.4566193c0,54.2020264,10.8404083,80.7008057,75.8828506,80.7008057
				c0,0,58.4177551,0,82.5075378,0s21.6808167-30.1122437,1.2044983-30.1122437s-83.7120361,0-98.768158,0
				S86.072731,351.4987793,86.072731,320.7842712C86.072731,299.461853,84.9117661,238.6666107,84.2017517,203.47966z"/>
            <path class="st0" d="M259.0760498,394.2581482h-84.4942017c-6.5617981,0-11.8811798-5.3193665-11.8811798-11.8811646v-6.349884
				c0-6.5617981,5.3193817-11.8811951,11.8811798-11.8811951h84.4942017c6.5617981,0,11.8811951,5.319397,11.8811951,11.8811951
				v6.349884C270.9572449,388.9387817,265.6378479,394.2581482,259.0760498,394.2581482z"/>
		</g>
	</g>
</g>
    <g id="Layer_16">
	<g>
		<path class="st0" d="M259.3774109,458.0960999h27.2176208c0,0,0,30.7145081,25.323822,47.2762451
			c16.211731,10.6024475,11.2301636,24.2402649,11.2301636,24.2402649h-38.9629517l-16.7442932-18.6694946l-0.7208252,18.6694946
			H254.653656C253.5394897,500.5542603,259.3774109,458.0960999,259.3774109,458.0960999z"/>
        <polyline class="st5" points="277.1910706,521.8133545 267.4417725,510.9431152 267.0377808,521.4066162 		"/>
        <path class="st5" d="M277.1910706,521.8133545"/>
        <path class="st5" d="M256.5681458,483.2776184c1.3278809-14.4076538,2.8092651-25.1815186,2.8092651-25.1815186h27.2176208"/>
        <g>
			<g>
				<g>
					<path class="st3" d="M204.6560516,360.743866c5.1955719,2.0655823,12.5168304,3.1442261,19.6419525,3.5735779
						l27.7677002,0.0760193l-17.6645355,114.4547424h70.9901581c0,0,6.2374878-120.3980103,8.5184631-137.7843628
						c2.2936707-17.3609009-9.3774109-28.1196899-30.4006653-30.1725769
						c-8.3256836-0.8109741-32.2192688-1.8500977-44.7901001-2.8005371l-19.9654999-35.01651l-52.8745728,17.1613159
						C165.878952,290.2355347,163.5726013,348.1856384,204.6560516,360.743866z"/>
				</g>
			</g>
            <g>
				<polyline class="st5" points="182.3824005,330.8896484 270.99646,337.3638306 253.2171936,464.9806213 				"/>
                <line class="st5" x1="297.3583679" y1="467.6567688" x2="240.7081757" y2="467.6567688"/>
			</g>
            <path class="st5" d="M178.4157715,286.7806702l6.4681549,22.2287292c0.945343,3.2488403,0.1140289,6.7554321-2.1891632,9.2341309
				l-2.372406,2.5531921"/>
		</g>
	</g>
</g>
    <g id="Layer_15">
	<g>
		<path class="st0" d="M171.1145782,458.0960999h25.8965607c0,0,1.204483,37.0380554,13.5504761,47.2762451
			s8.4314117,24.2402649,8.4314117,24.2402649h-34.1402435l-5.0056305-18.6694946l-0.5411835,18.6694946h-11.7378998
			C166.7315826,500.5542603,171.1145782,458.0960999,171.1145782,458.0960999z"/>
        <g>
			<g>
				<path class="st3" d="M142.352417,360.743866c5.1955872,2.0655823,12.5168304,3.1442261,19.6419525,3.5735779
					l16.8250885,0.0760193l-17.6645203,114.4547424h70.9901581c0,0,6.2374725-120.3980103,8.5184631-137.7843628
					c2.2936707-17.3609009-9.3774109-28.1196899-30.4006805-30.1725769
					c-8.3256683-0.8109741-21.2766571-1.8500977-33.8474884-2.8005371l-5.9940186-17.8551941l-61.4484406,1.5007629
					C108.9729309,291.7362976,101.2689667,348.1856384,142.352417,360.743866z"/>
			</g>
		</g>
        <g>
			<g>
				<path class="st5" d="M238.9681244,361.1196594c0.6641083-9.4648743,1.253891-16.6903076,1.6954346-20.0558167
					c2.2936707-17.3609009-9.3774109-28.1196899-30.4006805-30.1725769"/>
			</g>
		</g>
        <g>
			<path class="st5" d="M140.543396,287.90448c0,0,6.6107635,20.3257751-8.5206451,25.5201416"/>
            <path class="st5" d="M174.9402161,308.6819458c0,0-18.6862946,1.8067322-26.2812805,7.6786194"/>
            <polyline class="st5" points="127.0617447,287.90448 135.4178925,330.8896484 197.7502289,337.3638306 179.9709473,464.9806213
							"/>
            <line class="st5" x1="224.1121368" y1="467.6567688" x2="167.4619293" y2="467.6567688"/>
            <line class="st5" x1="202.1906281" y1="478.8482056" x2="218.7298889" y2="478.8482056"/>
		</g>
	</g>
</g>
    <g id="Layer_14">
	<g>
		<g>
			<path class="st1" d="M103.5518265,298.8893738c20.9059525-101.5516815,68.6984482-125.4793396,68.6984482-125.4793396
				s29.5398712-11.6133423,44.3071899-6.3940887c27.4415894,9.6987305,30.1899719,25.5836792,30.1899719,25.5836792
				s6.6461792,24.0080872,2.5588226,33.6280212c-4.0873871,9.6199799-24.412384,34.5694427-24.412384,34.5694427
				c0.3492432,14.683075,6.2245789,30.2484131,14.3395538,46.1713257
				C239.233429,306.9684143,169.3148651,328.5090027,103.5518265,298.8893738z"/>
            <g>
				<path class="st2" d="M199.7612,184.3077545c2.2942963,3.3930359,6.3153076,7.3137817,13.222168,9.4246368
					c13.813736,4.2216949,20.7122803-1.5216522,20.7122803-1.5216522l6.2456055-9.3683472"/>
                <path class="st1" d="M230.3718414,165.0716858c-17.4558716-9.1051788-28.4967499-6.4224701-31.4360962-1.9580841
					s3.5793915,18.6598053,23.4008026,23.2630005C242.1579437,190.9797821,249.3347473,174.9629517,230.3718414,165.0716858z"/>
                <path class="st2" d="M198.9357452,163.1136017c-2.9393463,4.464386,3.5793915,18.6598053,23.4008026,23.2630005
					c10.1886139,2.3661346,17.0363159-0.7159119,18.7102509-5.6137238"/>
			</g>
            <path class="st2" d="M111.9692612,293.9385071c0,0,59.5922623,22.4220581,119.1845322,6.7260437"/>
            <path class="st2" d="M246.747406,192.5996399c0,0,6.6461945,24.0080872,2.5588379,33.6280365
				c-3.2587891,7.6698151-17.6158447,25.2379303-22.4385071,31.8741913"/>
		</g>
	</g>
</g>
    <g id="Layer_13">
	<g>
		<g>
			<line class="st6" x1="92.4850922" y1="34.0390892" x2="92.4850922" y2="39.3277054"/>
            <line class="st6" x1="92.4850922" y1="44.9728584" x2="92.4850922" y2="50.2614784"/>
            <line class="st6" x1="100.596283" y1="42.1502838" x2="95.3076706" y2="42.1502838"/>
            <line class="st6" x1="89.6625137" y1="42.1502838" x2="84.3738937" y2="42.1502838"/>
		</g>
        <g>
			<line class="st6" x1="165.8554535" y1="95.1819763" x2="165.8554535" y2="99.6085281"/>
            <line class="st6" x1="165.8554535" y1="104.3335037" x2="165.8554535" y2="108.7600555"/>
            <line class="st6" x1="172.6445007" y1="101.9710159" x2="168.2179413" y2="101.9710159"/>
            <line class="st6" x1="163.4929657" y1="101.9710159" x2="159.0664215" y2="101.9710159"/>
		</g>
        <g>
			<line class="st6" x1="422.1314087" y1="175.979599" x2="422.1314087" y2="180.4061584"/>
            <line class="st6" x1="422.1314087" y1="185.131134" x2="422.1314087" y2="189.5576782"/>
            <line class="st6" x1="428.9204712" y1="182.7686462" x2="424.4938965" y2="182.7686462"/>
            <line class="st6" x1="419.7689209" y1="182.7686462" x2="415.3423767" y2="182.7686462"/>
		</g>
        <g>
			<line class="st6" x1="350.2798767" y1="435.7075195" x2="350.2798767" y2="438.690979"/>
            <line class="st6" x1="350.2798767" y1="441.8755798" x2="350.2798767" y2="444.8590393"/>
            <line class="st6" x1="354.8556213" y1="440.2832642" x2="351.8721619" y2="440.2832642"/>
            <line class="st6" x1="348.687561" y1="440.2832642" x2="345.7041016" y2="440.2832642"/>
		</g>
        <g>
			<line class="st6" x1="519.7047729" y1="52.5326233" x2="519.7047729" y2="58.0725021"/>
            <line class="st6" x1="519.7047729" y1="63.9858551" x2="519.7047729" y2="69.5257339"/>
            <line class="st6" x1="528.2012939" y1="61.0291786" x2="522.661438" y2="61.0291786"/>
            <line class="st6" x1="516.7480469" y1="61.0291786" x2="511.2081909" y2="61.0291786"/>
		</g>
        <circle class="st6" cx="56.7824974" cy="151.1833038" r="4.3902001"/>
        <circle class="st6" cx="439.1083679" cy="342.4952393" r="4.3902001"/>
        <circle class="st7" cx="87.0408173" cy="100.9232178" r="3.0695159"/>
        <circle class="st7" cx="342.5558472" cy="379.2020264" r="6.9910564"/>
        <circle class="st7" cx="494.1831665" cy="116.6964874" r="5.3216376"/>
	</g>
</g>
    <g id="Layer_12">
	<g>
		<g>
			<g>
				<line class="st6" x1="438.8904724" y1="529.6126099" x2="551.0957031" y2="529.6126099"/>
                <line class="st6" x1="60.0976868" y1="529.6126099" x2="411.9613037" y2="529.6126099"/>
			</g>
            <g>
				<line class="st6" x1="171.5942535" y1="548.9022827" x2="115.5220642" y2="548.9022827"/>
                <line class="st6" x1="511.7973938" y1="548.9022827" x2="189.8517609" y2="548.9022827"/>
			</g>
            <g>
				<line class="st6" x1="355.4663696" y1="568.1919556" x2="393.4677734" y2="568.1919556"/>
                <line class="st6" x1="172.0321655" y1="568.1919556" x2="342.9251404" y2="568.1919556"/>
			</g>
		</g>
	</g>
</g>
    <g id="Layer_11">
	<g>
		<path class="st8" d="M235.7137756,174.1320648l-9.3399658,4.2600098
			c-0.5400391,0.0100098-1.0500488-0.0100098-1.5599976-0.0400391c-8.1200562-0.3899536-12.4400024-4.4199829-14.1200562-6.4499512
			l17.1300049-9.9700317l5.8600464-3.3999634L235.7137756,174.1320648z"/>
        <path class="st0" d="M235.7137756,174.1320648l-9.3399658,4.2600098
			c-0.5400391,0.0100098-1.0500488-0.0100098-1.5599976-0.0400391c-2.960022-6.1999512-0.210022-12.1799927,3.0099487-16.4199829
			l5.8600464-3.3999634L235.7137756,174.1320648z"/>
	</g>
</g>
    <g id="Layer_10">
	<g>
		<path class="st8" d="M249.6560516,137.9377594c-13.5820312,2.327713-31.6060028,35.3913574-11.7687988,44.070343
			C257.7244568,190.6870728,277.3256836,133.1956635,249.6560516,137.9377594z"/>
        <path class="st0" d="M226.9589081,161.8075867c0,0,7.3408051-8.6079865,14.4240723-13.0893555
			c0,0,9.5517578,11.8770142,21.3075714,11.670639c11.7558289-0.2063904,24.4365845-18.2960968,16.8583069-25.2858429
			c-7.5783081-6.9897461-15.4261169,0.2959747-15.4261169,0.2959747S229.4839325,111.1374817,226.9589081,161.8075867z"/>
        <g>
			<path class="st8" d="M232.3025055,160.1812744c0,0,1.1276245-13.9829254-10.0470123-14.919342
				c-11.1746368-0.9364319-8.4060059,21.8459167,8.5764008,20.3564606L232.3025055,160.1812744z"/>
            <g>
				<g>
					<path class="st0" d="M227.2879333,161.8561554c-0.2741852-0.0934753-0.4771729-0.3475189-0.4907532-0.6544647
						c-0.0036774-0.0835571-0.4382935-8.3320923-6.2311249-11.3405151
						c-0.3562012-0.1842957-0.4943237-0.6220093-0.3095703-0.9773254c0.1845245-0.3568726,0.6237793-0.4929657,0.9773102-0.3095703
						c6.5451965,3.3981171,6.9969177,12.1912689,7.0127411,12.5640717c0.0169678,0.4001465-0.2928619,0.7382507-0.6929932,0.7552338
						C227.4607849,161.8978729,227.371048,161.884491,227.2879333,161.8561554z"/>
				</g>
                <g>
					<path class="st0" d="M222.1552124,158.7113647c-0.3700562-0.1261597-0.5749664-0.5237885-0.4586182-0.9001617
						c0.0297699-0.0938721,0.7490692-2.3397217,3.3355865-4.4391022c0.3105927-0.2525482,0.7692108-0.2061768,1.0197296,0.105957
						c0.2525482,0.3105927,0.2052917,0.7674103-0.1059723,1.0197296c-2.22435,1.8053131-2.8587952,3.7276459-2.8645172,3.7466431
						c-0.1222076,0.3803711-0.5288391,0.5919495-0.9092255,0.4719849
						C222.1666107,158.7152557,222.1605682,158.7131958,222.1552124,158.7113647z"/>
				</g>
			</g>
		</g>
	</g>
</g>
    <g id="Layer_9">
	<g>
		<path class="st0" d="M240.2779388,156.1821594c0,0,3.9485626-3.5890503,6.6607819-0.5652313
			c0,0,0.4880676-0.9755859,1.3808746-0.6513824c0.8927917,0.3242188-0.1033478,3.1244812-0.1033478,3.1244812
			S244.2905884,156.1651306,240.2779388,156.1821594z"/>
        <path class="st0" d="M258.4415283,165.7505646c0,0,1.5057983-4.6417999-1.6055298-4.4107361
			c0,0,0.2612-0.8634338-0.2698975-1.1806488c-0.9185333-0.5486603-2.1406403,1.976944-2.1406403,1.976944
			S257.2299805,163.2949219,258.4415283,165.7505646z"/>
        <g>

				<ellipse transform="matrix(0.3940113 -0.9191056 0.9191056 0.3940113 -2.8442013 322.3061829)" class="st0" cx="242.9994507" cy="163.3099976" rx="2.4768834" ry="2.0033615"/>
            <circle class="st9" cx="243.7516022" cy="162.6763458" r="0.532712"/>
		</g>
        <g>

				<ellipse transform="matrix(0.3940113 -0.9191056 0.9191056 0.3940113 -0.5448954 335.0934753)" class="st0" cx="253.8463898" cy="167.9599609" rx="2.4768834" ry="2.0033615"/>
            <circle class="st9" cx="254.5985413" cy="167.3263092" r="0.532712"/>
		</g>
        <g>
			<path class="st0" d="M246.3343658,173.9054871c-0.562439-0.1917572-1.0532684-0.4750824-1.3879395-0.729126
				c-0.3186493-0.2418213-0.3796082-0.6951294-0.1391144-1.0142212c0.2402649-0.3184357,0.6962891-0.3829498,1.0147095-0.1426849
				c0.0178223,0.0135498,1.7329102,1.2799988,2.7279968,0.2708282c0.2149506-0.217804,0.1926727-0.3346558,0.184021-0.3795013
				c-0.084549-0.4433899-1.0097961-1.0678864-1.6450958-1.3488464c-0.3617554-0.159256-0.5295563-0.5801392-0.3769989-0.9441833
				l1.8747559-4.4672241c0.1559601-0.3696136,0.5810699-0.5344696,0.949646-0.3886108
				c0.3698425,0.1552887,0.542984,0.5802307,0.3886108,0.949646l-1.6147461,3.847229
				c0.6889343,0.3980103,1.6637115,1.1164856,1.8481903,2.0788269c0.0798035,0.4155884,0.0448303,1.0427094-0.5760803,1.6721039
				C248.6073151,174.2973022,247.3540039,174.2531281,246.3343658,173.9054871z"/>
		</g>
        <path class="st9" d="M244.6573029,178.0266418c0,0-6.2323303,1.2496185-6.957016-6.1078796L244.6573029,178.0266418z"/>
	</g>
</g>
    <g id="Layer_8">
	<g>
		<g>
			<path class="st8" d="M249.4085693,258.2666016l8.9981995-4.5928192l1.9170837-18.5317535
				c0.3589172-3.4697113,3.071228-6.229187,6.5342407-6.6478882l31.3579712-3.7913818
				c1.6175537-0.1955719,3.0421448,1.0671387,3.0421448,2.6965027l0,0c0,1.2761536-0.8884277,2.3802185-2.1350403,2.653244
				l-13.4406738,2.9437408l1.9762573,15.6285706c0.328949,2.6013794-1.0907593,5.1096802-3.490387,6.1666718l-4.4846497,1.9754181
				l-0.224884,0.8791504c-1.1034851,4.3135986-4.7826843,7.4794312-9.212616,7.9271545l-1.8986816,0.1918945l-9.4721069,8.5295105
				L249.4085693,258.2666016z"/>
            <line class="st10" x1="272.5083008" y1="234.6220856" x2="284.2765503" y2="232.9962463"/>
            <line class="st10" x1="273.0348816" y1="241.4297028" x2="284.7200317" y2="239.3830261"/>
            <line class="st10" x1="274.3410339" y1="247.2688293" x2="285.6512756" y2="245.0817719"/>
		</g>
        <g>
			<path class="st1" d="M150.8448181,230.0065308c7.8881836,24.2230225,32.6223755,83.0092773,47.9004211,84.5570984
				c11.2276306,1.1417542,40.6147614-21.0999146,55.4204254-32.9856262
				c5.3655548-4.2990112,8.8179474-7.2504883,8.8179474-7.2504883
				c-2.1581726-8.6389465-12.1569824-17.6574402-12.1569824-17.6574402l-10.7740326,3.1680603l-30.0975952,8.8647766
				c-4.8674774-25.1142426-25.6851044-88.4780579-33.9082184-96.4896088
				C176.0467834,172.2133026,134.9650726,181.242981,150.8448181,230.0065308z"/>
            <path class="st2" d="M238.1378784,260.4020691l-28.1828766,8.3008423
				c-4.0895691-21.1005402-19.438446-69.2016907-29.1170807-88.7891541"/>
            <path class="st2" d="M150.4812164,192.9886475c-3.8632355,8.5892944-5.0046082,20.5331879,0.3636017,37.0178833
				c7.8881836,24.2230225,32.6223755,83.0092773,47.9004211,84.5570984
				c10.5923157,1.0771484,37.347168-18.6577148,52.7729645-30.8746033"/>
            <path class="st2" d="M209.4786835,271.3352661c0,0-6.8992767,19.7172546-9.3943329,27.5541077"/>
            <path class="st3" d="M240.052597,259.8381348l14.1130676,21.7398682
				c5.3655548-4.2990112,8.8179474-7.2504883,8.8179474-7.2504883
				c-2.1581726-8.6389465-12.1569824-17.6574402-12.1569824-17.6574402L240.052597,259.8381348z"/>
		</g>
	</g>
</g>
    <g id="Layer_7">
	<g>
		<polygon class="st4" points="329.7084656,288.6074829 365.3009033,210.369873 313.5643921,210.369873 277.9719849,288.6074829
			"/>
        <path class="st0" d="M319.2897034,229.6221466l4.2415161-8.7978363c1.4492493-3.0061035-0.3293457-5.5627899-3.3447266-4.8079376
			l0,0c-1.625061,0.4068146-3.1696472,1.707962-3.9506836,3.3280182l-4.2415161,8.7978516
			c-1.4492493,3.0061035,0.3293457,5.5627747,3.344696,4.8079224h0.0000305
			C316.9640808,232.5433502,318.508667,231.242218,319.2897034,229.6221466z"/>
        <polygon class="st11" points="359.4989929,204.5679626 365.3009033,210.369873 313.5643921,210.369873 307.7624817,204.5679626
			"/>
        <polygon class="st3" points="277.9719849,288.6074829 272.1700745,282.8055725 307.7624817,204.5679626 313.5643921,210.369873
			"/>
	</g>
</g>
    <g id="Layer_6">
	<g>
		<path class="st8" d="M347.7848206,234.9763336c-10.8713074-1.1377716-18.5940552,4.8043976-13.2475281,7.520462
			c0,0-7.3069458,1.6467438-3.2079163,7.5279388c0,0-7.0907288,2.8514862-2.7433777,8.376236
			c0,0-5.6328735,4.9855042,1.8522644,7.5719604c7.4851685,2.5864563,16.5742798,1.7692261,15.8613892-4.9508667
			c0,0,8.7326965-1.9082336,6.0594177-9.3933716c0,0,4.8118896-1.6039581,3.2079163-7.6633606
			C355.5669861,243.965332,366.0449829,236.8874359,347.7848206,234.9763336z"/>
        <g>
			<path class="st10" d="M336.735321,242.2285156c0,0,11.5247498-2.0244598,17.2277222,1.5399017"/>
            <path class="st10" d="M333.8838196,250.4218903c0,0,11.7623901-0.9697418,16.3960571,1.2973022"/>
            <path class="st10" d="M330.7947083,258.7387085c0,0,9.1485291-1.1881104,13.782196,1.6633606"/>
		</g>
	</g>
</g>
    <g id="Layer_5">
	<g>
		<path class="st3" d="M488.5418396,317.5786133H384.6938782c-4.5448914,0-8.229248-3.6843567-8.229248-8.229248v-59.8365631
			c0-4.5448914,3.6843567-8.2292633,8.229248-8.2292633h103.8479614c4.5448914,0,8.2292786,3.6843719,8.2292786,8.2292633
			v59.8365631C496.7711182,313.8942566,493.086731,317.5786133,488.5418396,317.5786133z"/>
        <g>
			<g>
				<g>
					<path class="st9" d="M483.9507141,306.9643555h-35.1524048c-1.9114685,0-3.4609985-1.54953-3.4609985-3.460968v-35.1628418
						c0-1.9114685,1.54953-3.4609985,3.4609985-3.4609985h35.1524048c1.911438,0,3.460968,1.54953,3.460968,3.4609985v35.1628418
						C487.4116821,305.4148254,485.8621521,306.9643555,483.9507141,306.9643555z"/>
                    <path class="st9" d="M484.2199402,258.2812805h-35.6908875c-1.7627563,0-3.1917419-1.4289856-3.1917419-3.1917419v-0.0000153
						c0-1.7627411,1.4289856-3.1917419,3.1917419-3.1917419h35.6908875c1.7627563,0,3.1917419,1.4290009,3.1917419,3.1917419
						v0.0000153C487.4116821,256.8522949,485.9826965,258.2812805,484.2199402,258.2812805z"/>
				</g>
                <g>
					<circle class="st9" cx="411.3710938" cy="263.7718811" r="12.567811"/>
                    <path class="st9" d="M436.919281,307.6580811h-51.0952454c0-14.1038818,11.4398499-25.5436707,25.5437317-25.5436707
						C425.4794922,282.1144104,436.919281,293.5541992,436.919281,307.6580811z"/>
				</g>
			</g>
		</g>
	</g>
</g>
    <g id="Layer_4">
	<g>
		<path class="st3" d="M536.2984619,217.588562h-79.0235291c-3.7650757,0-6.8172607-3.0521851-6.8172607-6.8172455v-45.1266785
			c0-3.7650604,3.0521851-6.8172455,6.8172607-6.8172455h79.0235291c3.7650757,0,6.8172607,3.0521851,6.8172607,6.8172455
			v45.1266785C543.1157227,214.536377,540.0635376,217.588562,536.2984619,217.588562z"/>
        <g>
			<g>
				<g>
					<path class="st9" d="M532.446228,209.4136505h-25.4829712c-1.9114685,0-3.4609985-1.5495453-3.4609985-3.4609985v-25.4910278
						c0-1.9114532,1.54953-3.4609985,3.4609985-3.4609985h25.4829712c1.911499,0,3.4609985,1.5495453,3.4609985,3.4609985
						v25.4910278C535.9072266,207.8641052,534.3577271,209.4136505,532.446228,209.4136505z"/>
                    <path class="st9" d="M533.4490356,171.9187622h-27.4885559c-1.3576355,0-2.4582214-1.1005859-2.4582214-2.4582367l0,0
						c0-1.3576355,1.1005859-2.4582214,2.4582214-2.4582214h27.4885559c1.357605,0,2.4581909,1.1005859,2.4581909,2.4582214l0,0
						C535.9072266,170.8181763,534.8066406,171.9187622,533.4490356,171.9187622z"/>
				</g>
                <g>
					<circle class="st9" cx="477.342041" cy="176.1475372" r="9.6795168"/>
                    <path class="st9" d="M497.0188293,209.947937h-39.3526917c0-10.8625641,8.810791-19.6733093,19.6733398-19.6733093
						C488.2080994,190.2746277,497.0188293,199.0853729,497.0188293,209.947937z"/>
				</g>
			</g>
		</g>
	</g>
</g>
    <g id="Layer_3">
	<g>
		<g>
			<g>
				<path class="st4" d="M462.0777283,448.34375c0,0-16.0077515-91.267395,72.183197-110.2387085
					C534.2609253,338.1050415,550.8942871,426.2960205,462.0777283,448.34375z"/>
                <line class="st12" x1="468.4566956" y1="438.6017151" x2="527.881958" y2="347.8470764"/>
			</g>
            <g>
				<path class="st3" d="M464.1572876,444.3215637c0,0,5.2020569-75.5608826-66.7862854-91.267395
					C397.3710022,353.0541687,391.4140015,426.0680542,464.1572876,444.3215637z"/>
                <line class="st5" x1="458.255249" y1="436.256073" x2="403.2730408" y2="361.1196594"/>
			</g>
		</g>
        <g>
			<path class="st1" d="M519.0177612,490.1926575c-1.3599854,6.5700073-3.2299805,13.2299805-5.7800293,19.6699829
				c-2.7599792,6.9899597-6.3100281,13.7099915-10.8700256,19.7499695h-72
				c-12.1799927-16.1400146-17.1799927-37.1499329-19.0299683-55.0899353
				c-2.1500244-20.8699951-0.0400391-37.5800171-0.0400391-37.5800171h110.1500549
				C521.4477539,436.9426575,524.7077637,462.6926575,519.0177612,490.1926575z"/>
            <path class="st8" d="M519.0177612,490.1926575c-1.3599854,6.5700073-3.2299805,13.2299805-5.7800293,19.6699829
				c-5.4300232-7.8800049-16.190033-15.4299927-37.4100037-13.039978
				c-28.3800049,3.1900024-51.7600098-6.6500244-64.4899902-22.2999878
				c-2.1500244-20.8699951-0.0400391-37.5800171-0.0400391-37.5800171h24.4900513
				c5.8399658,12.0299683,19.6599731,29.5100098,50.8999634,31.3599854
				C506.3577576,469.4726257,515.3077393,479.1526794,519.0177612,490.1926575z"/>
            <path class="st8" d="M480.8173828,508.9378052c-23.2274475,3.0272217-16.6681213,19.6303101,4.6836243,14.4950562
				C504.2732849,518.9180298,493.5802002,507.2744446,480.8173828,508.9378052z"/>
		</g>
	</g>
</g>
    <g id="Layer_2">
	<g>
		<g>
			<path class="st3" d="M450.2241211,144.5126953H321.087616c-5.0629883,0-9.1673279-4.1043549-9.1673279-9.1673279V60.1578522
				c0-5.0629768,4.1043396-9.1673279,9.1673279-9.1673279h129.1365051c5.0629883,0,9.1673279,4.104351,9.1673279,9.1673279
				v75.1875153C459.391449,140.4083405,455.2871094,144.5126953,450.2241211,144.5126953z"/>
            <g>
				<g>
					<g>
						<path class="st9" d="M444.4577332,131.5018005h-44.6526184c-1.9114685,0-3.4609985-1.5495453-3.4609985-3.4609985V83.3753891
							c0-1.9114532,1.54953-3.4609909,3.4609985-3.4609909h44.6526184c1.911438,0,3.4609985,1.5495377,3.4609985,3.4609909
							v44.6654129C447.9187317,129.9522552,446.3691711,131.5018005,444.4577332,131.5018005z"/>
                        <path class="st9" d="M444.4577332,71.8262711h-44.6526184c-1.9114685,0-3.4609985-1.5495377-3.4609985-3.4609909V67.46241
							c0-1.9114532,1.54953-3.4609909,3.4609985-3.4609909h44.6526184c1.911438,0,3.4609985,1.5495377,3.4609985,3.4609909
							v0.9028702C447.9187317,70.2767334,446.3691711,71.8262711,444.4577332,71.8262711z"/>
					</g>
                    <g>
						<circle class="st9" cx="354.7084656" cy="78.5566406" r="15.40557"/>
                        <path class="st9" d="M386.0253296,132.3521423h-62.6323242c0-17.2884674,14.0229187-31.3113174,31.3113708-31.3113174
							C372.0024719,101.0408249,386.0253296,115.0636749,386.0253296,132.3521423z"/>
					</g>
				</g>
			</g>
		</g>
        <path class="st1" d="M321.5441895,34.0089951l3.684967,11.3411789h11.9248047
			c3.0856628,0,4.3686218,3.9485207,1.8722534,5.7622223l-9.6473694,7.0092354l3.684967,11.3411751
			c0.9535217,2.9346313-2.4052734,5.3749542-4.9016418,3.5612488l-9.6473694-7.0092316l-9.6473999,7.0092316
			c-2.4963379,1.8137054-5.8551331-0.6266174-4.9016113-3.5612488l3.684967-11.3411751l-9.6473999-7.0092354
			c-2.4963379-1.8137016-1.2133789-5.7622223,1.8722839-5.7622223h11.9248047l3.684967-11.3411789
			C316.4389343,31.0743656,320.5906677,31.0743656,321.5441895,34.0089951z"/>
	</g>
</g>
</svg>
