<svg width="756" height="218" viewBox="0 0 756 218" fill="none" xmlns="http://www.w3.org/2000/svg">
	<path d="M170.173 65.1921H141.617C141.508 54.6735 132.411 46.1484 121.242 46.1484H64.7567C53.5891 46.1484 44.4907 54.6735 44.3821 65.1921H15.8267C7.09997 65.1921 0 71.8945 0 80.1326V164.896C0 173.134 7.09997 179.836 15.8267 179.836H170.174C178.9 179.836 186 173.134 186 164.895V80.1326C186 71.8945 178.9 65.1921 170.173 65.1921ZM115.191 80.4275H70.809C65.3587 80.4275 60.9241 76.2416 60.9241 71.0961C60.9241 66.2508 64.9314 62.1657 70.0464 61.796L113.144 61.593L115.953 61.796C121.069 62.1657 125.076 66.2508 125.076 71.0961C125.076 76.2416 120.641 80.4275 115.191 80.4275Z" fill="#E1D1F7"/>
	<path d="M170.273 65.4023H158.027C166.699 65.4023 173.755 72.0924 173.755 80.3153V164.923C173.755 173.146 166.699 179.836 158.027 179.836H170.273C178.945 179.836 186 173.146 186 164.923V80.3153C186 72.0924 178.945 65.4023 170.273 65.4023Z" fill="#CDB3F2"/>
	<path d="M72.6246 68.0794V30.1212C72.6246 25.6837 76.2218 22.0865 80.6593 22.0865H105.459C109.831 22.0865 113.375 25.6307 113.375 30.002V68.0786C113.375 69.64 112.109 70.9057 110.548 70.9057H75.4521C73.8903 70.9064 72.6246 69.6407 72.6246 68.0794Z" fill="#7229D9"/>
	<path d="M105.459 22.0865H93.7589C98.1306 22.0865 101.674 25.6307 101.674 30.002V68.0786C101.674 69.64 100.409 70.9061 98.847 70.9061H110.548C112.109 70.9061 113.375 69.6404 113.375 68.0786V30.0024C113.375 25.6307 109.831 22.0865 105.459 22.0865Z" fill="#521C9E"/>
	<path d="M93.695 31.651C89.3876 31.2245 85.7969 34.8152 86.2237 39.1226C86.5394 42.31 89.118 44.8882 92.3054 45.2043C96.6129 45.6308 100.204 42.0401 99.7767 37.7327C99.461 34.5445 96.8821 31.9663 93.695 31.651Z" fill="white"/>
	<path d="M49.9538 127.321C42.1222 128.151 35.5529 121.581 36.3834 113.75C36.9886 108.043 41.5761 103.456 47.2829 102.852C55.1145 102.022 61.6838 108.592 60.8533 116.423C60.2481 122.13 55.6602 126.717 49.9538 127.321Z" fill="#7229D9"/>
	<path d="M48.6183 155.635C41.4715 155.635 34.6334 152.961 29.3633 148.107L28.1859 147.023L28.337 145.428C29.3335 134.916 38.0526 126.989 48.6179 126.989C59.1832 126.989 67.9024 134.916 68.8992 145.428L69.0503 147.022L67.8729 148.107C62.6028 152.961 55.7648 155.635 48.6183 155.635Z" fill="#7229D9"/>
	<path d="M82.2214 108.873H130.511C132.168 108.873 133.613 107.596 133.663 105.94C133.714 104.226 132.34 102.821 130.638 102.821H82.3481C80.6912 102.821 79.2461 104.098 79.1967 105.754C79.1458 107.468 80.5194 108.873 82.2214 108.873Z" fill="#817C88"/>
	<path d="M154.846 102.82H146.903C145.246 102.82 143.802 104.097 143.752 105.753C143.701 107.467 145.074 108.872 146.776 108.872H154.719C156.376 108.872 157.821 107.595 157.871 105.939C157.922 104.225 156.548 102.82 154.846 102.82Z" fill="#817C88"/>
	<path d="M82.2214 133.081H106.303C107.96 133.081 109.405 131.804 109.454 130.147C109.506 128.434 108.132 127.029 106.43 127.029H82.3481C80.6912 127.029 79.2461 128.306 79.1967 129.962C79.1458 131.676 80.5194 133.081 82.2214 133.081Z" fill="#817C88"/>
	<path d="M154.846 127.029H122.695C121.038 127.029 119.593 128.306 119.543 129.962C119.492 131.675 120.866 133.081 122.568 133.081H154.719C156.376 133.081 157.821 131.804 157.871 130.147C157.922 128.433 156.548 127.029 154.846 127.029Z" fill="#817C88"/>
	<path d="M154.846 151.237H82.3482C80.6912 151.237 79.2461 152.514 79.1967 154.17C79.1455 155.884 80.5194 157.289 82.2214 157.289H154.719C156.376 157.289 157.821 156.012 157.871 154.356C157.922 152.642 156.548 151.237 154.846 151.237Z" fill="#817C88"/>
	<path d="M320.36 81.84C328.893 81.84 335.4 84.4 339.88 89.52C344.467 94.5333 346.76 102.693 346.76 114V153.36C346.76 156.453 345.8 158.853 343.88 160.56C342.067 162.16 339.667 162.96 336.68 162.96C333.8 162.96 331.4 162.16 329.48 160.56C327.667 158.853 326.76 156.453 326.76 153.36V114C326.76 108.133 325.693 103.973 323.56 101.52C321.533 98.96 318.387 97.68 314.12 97.68C308.893 97.68 304.733 99.4933 301.64 103.12C298.547 106.64 297 111.493 297 117.68V153.36C297 156.453 296.04 158.853 294.12 160.56C292.307 162.16 289.96 162.96 287.08 162.96C284.2 162.96 281.8 162.16 279.88 160.56C277.96 158.853 277 156.453 277 153.36V114C277 108.133 275.933 103.973 273.8 101.52C271.773 98.96 268.627 97.68 264.36 97.68C259.133 97.68 254.973 99.4933 251.88 103.12C248.893 106.64 247.4 111.493 247.4 117.68V153.36C247.4 156.453 246.44 158.853 244.52 160.56C242.6 162.16 240.2 162.96 237.32 162.96C234.44 162.96 232.04 162.16 230.12 160.56C228.307 158.853 227.4 156.453 227.4 153.36V91.44C227.4 88.4533 228.36 86.16 230.28 84.56C232.2 82.96 234.6 82.16 237.48 82.16C240.253 82.16 242.493 82.96 244.2 84.56C246.013 86.0533 246.92 88.24 246.92 91.12V94.96C249.373 90.6933 252.627 87.44 256.68 85.2C260.84 82.96 265.587 81.84 270.92 81.84C282.653 81.84 290.493 86.7467 294.44 96.56C296.787 92.08 300.253 88.5067 304.84 85.84C309.427 83.1733 314.6 81.84 320.36 81.84ZM429.008 140.56C430.821 140.56 432.261 141.253 433.328 142.64C434.501 144.027 435.088 145.893 435.088 148.24C435.088 151.547 433.114 154.32 429.168 156.56C425.541 158.587 421.434 160.24 416.848 161.52C412.261 162.693 407.888 163.28 403.727 163.28C391.141 163.28 381.168 159.653 373.808 152.4C366.448 145.147 362.768 135.227 362.768 122.64C362.768 114.64 364.368 107.547 367.568 101.36C370.768 95.1733 375.248 90.3733 381.008 86.96C386.874 83.5467 393.488 81.84 400.848 81.84C407.888 81.84 414.021 83.3867 419.248 86.48C424.474 89.5733 428.528 93.9467 431.408 99.6C434.288 105.253 435.728 111.92 435.728 119.6C435.728 124.187 433.701 126.48 429.648 126.48H382.448C383.088 133.84 385.168 139.28 388.688 142.8C392.208 146.213 397.328 147.92 404.048 147.92C407.461 147.92 410.448 147.493 413.008 146.64C415.674 145.787 418.661 144.613 421.968 143.12C425.168 141.413 427.514 140.56 429.008 140.56ZM401.328 95.92C395.888 95.92 391.514 97.6267 388.208 101.04C385.008 104.453 383.088 109.36 382.448 115.76H418.608C418.394 109.253 416.794 104.347 413.808 101.04C410.821 97.6267 406.661 95.92 401.328 95.92ZM495.768 82.16C498.541 81.9467 500.728 82.5333 502.328 83.92C503.928 85.3067 504.728 87.3867 504.728 90.16C504.728 93.04 504.034 95.1733 502.648 96.56C501.261 97.9467 498.754 98.8533 495.128 99.28L490.328 99.76C484.034 100.4 479.394 102.533 476.408 106.16C473.528 109.787 472.088 114.32 472.088 119.76V153.36C472.088 156.453 471.128 158.853 469.208 160.56C467.288 162.16 464.888 162.96 462.008 162.96C459.128 162.96 456.728 162.16 454.808 160.56C452.994 158.853 452.088 156.453 452.088 153.36V91.44C452.088 88.4533 452.994 86.16 454.808 84.56C456.728 82.96 459.074 82.16 461.848 82.16C464.621 82.16 466.861 82.96 468.568 84.56C470.274 86.0533 471.128 88.24 471.128 91.12V97.52C473.154 92.8267 476.141 89.2 480.088 86.64C484.141 84.08 488.621 82.64 493.528 82.32L495.768 82.16ZM546.945 81.84C557.825 81.84 565.878 84.56 571.105 90C576.438 95.3333 579.105 103.493 579.105 114.48V153.52C579.105 156.4 578.252 158.693 576.545 160.4C574.838 162 572.492 162.8 569.505 162.8C566.732 162.8 564.438 161.947 562.625 160.24C560.918 158.533 560.065 156.293 560.065 153.52V150C558.252 154.16 555.372 157.413 551.425 159.76C547.585 162.107 543.105 163.28 537.985 163.28C532.758 163.28 528.012 162.213 523.745 160.08C519.478 157.947 516.118 155.013 513.665 151.28C511.212 147.547 509.985 143.387 509.985 138.8C509.985 133.04 511.425 128.507 514.305 125.2C517.292 121.893 522.092 119.493 528.705 118C535.318 116.507 544.438 115.76 556.065 115.76H560.065V112.08C560.065 106.853 558.945 103.067 556.705 100.72C554.465 98.2667 550.838 97.04 545.825 97.04C542.732 97.04 539.585 97.52 536.385 98.48C533.185 99.3333 529.398 100.613 525.025 102.32C522.252 103.707 520.225 104.4 518.945 104.4C517.025 104.4 515.425 103.707 514.145 102.32C512.972 100.933 512.385 99.12 512.385 96.88C512.385 95.0667 512.812 93.52 513.665 92.24C514.625 90.8533 516.172 89.5733 518.305 88.4C522.038 86.3733 526.465 84.7733 531.585 83.6C536.812 82.4267 541.932 81.84 546.945 81.84ZM541.985 148.88C547.318 148.88 551.638 147.12 554.945 143.6C558.358 139.973 560.065 135.333 560.065 129.68V126.32H557.185C550.038 126.32 544.492 126.64 540.545 127.28C536.598 127.92 533.772 129.04 532.065 130.64C530.358 132.24 529.505 134.427 529.505 137.2C529.505 140.613 530.678 143.44 533.025 145.68C535.478 147.813 538.465 148.88 541.985 148.88ZM669.031 146.48C671.165 148.507 672.231 150.8 672.231 153.36C672.231 155.813 671.325 158 669.511 159.92C667.805 161.84 665.778 162.8 663.431 162.8C661.085 162.8 658.898 161.84 656.871 159.92L619.431 126V153.36C619.431 156.453 618.471 158.8 616.551 160.4C614.631 162 612.231 162.8 609.351 162.8C606.471 162.8 604.071 162 602.151 160.4C600.338 158.8 599.431 156.453 599.431 153.36V57.84C599.431 54.7467 600.338 52.4 602.151 50.8C604.071 49.2 606.471 48.4 609.351 48.4C612.231 48.4 614.631 49.2 616.551 50.8C618.471 52.4 619.431 54.7467 619.431 57.84V118L653.671 85.2C655.591 83.28 657.778 82.32 660.231 82.32C662.685 82.32 664.818 83.2267 666.631 85.04C668.445 86.8533 669.351 88.9867 669.351 91.44C669.351 93.8933 668.338 96.1333 666.311 98.16L641.191 121.52L669.031 146.48ZM695.133 162.96C692.253 162.96 689.853 162.16 687.933 160.56C686.119 158.853 685.213 156.453 685.213 153.36V91.6C685.213 88.5067 686.119 86.16 687.933 84.56C689.853 82.96 692.253 82.16 695.133 82.16C698.013 82.16 700.413 82.96 702.333 84.56C704.253 86.16 705.213 88.5067 705.213 91.6V153.36C705.213 156.453 704.253 158.853 702.333 160.56C700.413 162.16 698.013 162.96 695.133 162.96ZM695.133 67.92C691.506 67.92 688.626 66.96 686.493 65.04C684.359 63.0133 683.293 60.4 683.293 57.2C683.293 54 684.359 51.44 686.493 49.52C688.626 47.6 691.506 46.64 695.133 46.64C698.653 46.64 701.479 47.6 703.613 49.52C705.853 51.44 706.973 54 706.973 57.2C706.973 60.4 705.906 63.0133 703.773 65.04C701.639 66.96 698.759 67.92 695.133 67.92ZM735.278 162.96C731.864 162.96 729.038 161.84 726.798 159.6C724.558 157.253 723.438 154.373 723.438 150.96C723.438 147.547 724.558 144.72 726.798 142.48C729.038 140.133 731.864 138.96 735.278 138.96C738.691 138.96 741.518 140.133 743.758 142.48C745.998 144.72 747.118 147.547 747.118 150.96C747.118 154.373 745.998 157.253 743.758 159.6C741.518 161.84 738.691 162.96 735.278 162.96Z" fill="#521C9E"/>
</svg>
